<svg height="512pt" viewBox="-63 0 512 512" width="512pt" xmlns="http://www.w3.org/2000/svg"><path d="m359.035156 504.5h-331.332031c-11.15625 0-20.203125-9.046875-20.203125-20.203125v-422.246094c0-11.160156 9.046875-20.203125 20.203125-20.203125h331.332031c11.160156 0 20.203125 9.042969 20.203125 20.203125v422.246094c0 11.15625-9.042969 20.203125-20.203125 20.203125zm0 0" fill="#d19a75"/><path d="m359.035156 41.847656h-16.160156c11.15625 0 20.203125 9.042969 20.203125 20.203125v422.246094c0 11.15625-9.046875 20.203125-20.203125 20.203125h16.160156c11.160156 0 20.203125-9.046875 20.203125-20.203125v-422.246094c0-11.160156-9.042969-20.203125-20.203125-20.203125zm0 0" fill="#c47e4e"/><path d="m37.804688 41.847656h311.128906v432.347656h-311.128906zm0 0" fill="#def4f8"/><path d="m333.78125 41.847656h15.152344v432.347656h-15.152344zm0 0" fill="#bce8f1"/><path d="m262.0625 64.070312h-137.382812c-5.578126 0-10.101563-4.523437-10.101563-10.101562v-36.367188c0-5.578124 4.523437-10.101562 10.101563-10.101562h137.382812c5.578125 0 10.101562 4.523438 10.101562 10.101562v36.367188c0 5.578125-4.523437 10.101562-10.101562 10.101562zm0 0" fill="#e6e6e6"/><path d="m262.0625 7.5h-19.195312c5.578124 0 10.101562 4.523438 10.101562 10.101562v36.367188c0 5.578125-4.523438 10.101562-10.101562 10.101562h19.195312c5.578125 0 10.101562-4.523437 10.101562-10.101562v-36.367188c0-5.578124-4.523437-10.101562-10.101562-10.101562zm0 0" fill="#cdcdcd"/><path d="m95.550781 96.976562h-33.5c-4.144531 0-7.5 3.359376-7.5 7.5v53.601563c0 4.140625 3.355469 7.5 7.5 7.5h33.5c4.140625 0 7.5-3.359375 7.5-7.5v-22.78125c0-4.140625-3.359375-7.5-7.5-7.5h-13.085937c-4.109375 0-7.691406 3.164063-7.8125 7.269531-.128906 4.246094 3.277344 7.730469 7.496094 7.730469h5.902343v7.78125h-18.5v-38.601563h26c4.140625 0 7.5-3.359374 7.5-7.5 0-4.144531-3.359375-7.5-7.5-7.5zm0 0"/><path d="m210.121094 165.574219c4.140625 0 7.5-3.355469 7.5-7.5 0-4.140625-3.359375-7.5-7.5-7.5h-26v-11.800781h19.300781c4.140625 0 7.5-3.355469 7.5-7.5 0-4.140626-3.359375-7.5-7.5-7.5h-19.300781v-11.796876h26c4.140625 0 7.5-3.359374 7.5-7.5 0-4.144531-3.359375-7.5-7.5-7.5h-33.5c-4.144532 0-7.5 3.355469-7.5 7.5v53.597657c0 4.144531 3.355468 7.5 7.5 7.5zm0 0"/><path d="m119.335938 96.976562c-4.144532 0-7.5 3.355469-7.5 7.5v53.601563c0 4.140625 3.355468 7.5 7.5 7.5h33.5c4.140624 0 7.5-3.359375 7.5-7.5v-53.601563c0-4.144531-3.359376-7.5-7.5-7.5-4.144532 0-7.5 3.355469-7.5 7.5v46.101563h-18.5v-46.101563c0-4.144531-3.359376-7.5-7.5-7.5zm0 0"/><path d="m233.90625 150.574219c-4.144531 0-7.5 3.359375-7.5 7.5 0 4.144531 3.355469 7.5 7.5 7.5h33.5c4.140625 0 7.5-3.355469 7.5-7.5v-26.800781c0-4.140626-3.359375-7.5-7.5-7.5h-26v-11.796876h26c4.140625 0 7.5-3.359374 7.5-7.5 0-4.144531-3.359375-7.5-7.5-7.5h-33.5c-4.144531 0-7.5 3.355469-7.5 7.5v26.796876c0 4.144531 3.355469 7.5 7.5 7.5h26v11.800781zm0 0"/><path d="m332.191406 112.515625v-8.039063c0-4.144531-3.359375-7.5-7.5-7.5h-33.5c-4.140625 0-7.5 3.355469-7.5 7.5v8.039063c0 4.144531 3.359375 7.5 7.5 7.5s7.5-3.355469 7.5-7.5v-.539063h1.75v46.101563c0 4.140625 3.359375 7.5 7.5 7.5s7.5-3.359375 7.5-7.5v-46.101563h1.75v.539063c0 4.144531 3.359375 7.5 7.5 7.5s7.5-3.359375 7.5-7.5zm0 0"/><path d="m172.226562 238.890625v-53.601563c0-4.144531-3.359374-7.5-7.5-7.5-4.140624 0-7.5 3.355469-7.5 7.5v53.601563c0 4.140625 3.359376 7.5 7.5 7.5 4.140626 0 7.5-3.359375 7.5-7.5zm0 0"/><path d="m99.941406 185.289062v53.601563c0 4.140625 3.359375 7.5 7.5 7.5h33.5c4.144532 0 7.5-3.359375 7.5-7.5 0-4.144531-3.355468-7.5-7.5-7.5h-26v-46.101563c0-4.144531-3.355468-7.5-7.5-7.5-4.140625 0-7.5 3.355469-7.5 7.5zm0 0"/><path d="m188.511719 231.390625c-4.140625 0-7.5 3.355469-7.5 7.5 0 4.140625 3.359375 7.5 7.5 7.5h33.5c4.144531 0 7.5-3.359375 7.5-7.5v-26.800781c0-4.144532-3.355469-7.5-7.5-7.5h-26v-11.800782h26c4.144531 0 7.5-3.355468 7.5-7.5 0-4.144531-3.355469-7.5-7.5-7.5h-33.5c-4.140625 0-7.5 3.355469-7.5 7.5v26.800782c0 4.140625 3.359375 7.5 7.5 7.5h26v11.800781zm0 0"/><path d="m245.796875 177.789062c-4.140625 0-7.5 3.355469-7.5 7.5v8.039063c0 4.144531 3.359375 7.5 7.5 7.5 4.144531 0 7.5-3.355469 7.5-7.5v-.539063h1.75v46.101563c0 4.140625 3.359375 7.5 7.5 7.5 4.144531 0 7.5-3.359375 7.5-7.5v-46.101563h1.75v.539063c0 4.144531 3.359375 7.5 7.5 7.5 4.144531 0 7.5-3.355469 7.5-7.5v-8.039063c0-4.144531-3.355469-7.5-7.5-7.5zm0 0"/><path d="m379.238281 434.042969c-4.140625 0-7.5 3.355469-7.5 7.5v42.757812c0 7.003907-5.695312 12.699219-12.699219 12.699219h-331.339843c-7.003907 0-12.699219-5.695312-12.699219-12.699219v-342.757812c0-4.144531-3.359375-7.5-7.5-7.5s-7.5 3.355469-7.5 7.5v342.757812c0 15.273438 12.425781 27.699219 27.699219 27.699219h331.339843c15.273438 0 27.699219-12.425781 27.699219-27.699219v-42.757812c0-4.144531-3.355469-7.5-7.5-7.5zm0 0"/><path d="m359.039062 34.351562h-79.375v-16.75c-.003906-9.707031-7.898437-17.601562-17.601562-17.601562h-137.382812c-9.707032 0-17.601563 7.894531-17.601563 17.601562v16.75h-79.378906c-15.273438 0-27.699219 12.425782-27.699219 27.699219v44.449219c0 4.144531 3.359375 7.5 7.5 7.5s7.5-3.355469 7.5-7.5v-44.449219c0-7.003906 5.695312-12.699219 12.699219-12.699219h2.601562v424.847657c0 4.144531 3.355469 7.5 7.5 7.5h138.070313c4.140625 0 7.5-3.355469 7.5-7.5 0-4.140625-3.359375-7.5-7.5-7.5h-130.570313v-417.347657h61.777344v4.617188c0 9.703125 7.894531 17.601562 17.601563 17.601562h137.382812c9.703125 0 17.601562-7.894531 17.601562-17.601562v-4.617188h61.777344v417.347657h-130.488281c-4.140625 0-7.5 3.359375-7.5 7.5 0 4.144531 3.359375 7.5 7.5 7.5h137.988281c4.140625 0 7.5-3.355469 7.5-7.5v-424.847657h2.597656c7.003907 0 12.699219 5.695313 12.699219 12.699219v344.429688c0 4.140625 3.359375 7.5 7.5 7.5 4.144531 0 7.5-3.359375 7.5-7.5v-344.429688c0-15.277343-12.425781-27.699219-27.699219-27.699219zm-96.976562 22.21875h-137.382812c-1.4375 0-2.601563-1.167968-2.601563-2.601562v-36.367188c0-1.433593 1.164063-2.601562 2.601563-2.601562h137.382812c1.433594 0 2.601562 1.167969 2.601562 2.601562v36.367188c-.003906 1.433594-1.167968 2.601562-2.601562 2.601562zm0 0"/><path d="m235.796875 28.285156h-84.855469c-4.140625 0-7.5 3.355469-7.5 7.5 0 4.140625 3.359375 7.5 7.5 7.5h84.855469c4.140625 0 7.5-3.359375 7.5-7.5 0-4.144531-3.359375-7.5-7.5-7.5zm0 0"/><path d="m154.984375 286.886719h-80.8125c-4.144531 0-7.5 3.355469-7.5 7.5 0 4.140625 3.355469 7.5 7.5 7.5h80.8125c4.140625 0 7.5-3.359375 7.5-7.5 0-4.144531-3.359375-7.5-7.5-7.5zm0 0"/><path d="m154.984375 327.292969h-80.8125c-4.144531 0-7.5 3.355469-7.5 7.5s3.355469 7.5 7.5 7.5h80.8125c4.140625 0 7.5-3.355469 7.5-7.5s-3.359375-7.5-7.5-7.5zm0 0"/><path d="m154.984375 367.699219h-80.8125c-4.144531 0-7.5 3.355469-7.5 7.5s3.355469 7.5 7.5 7.5h80.8125c4.140625 0 7.5-3.355469 7.5-7.5s-3.359375-7.5-7.5-7.5zm0 0"/><path d="m154.984375 408.105469h-80.8125c-4.144531 0-7.5 3.355469-7.5 7.5 0 4.140625 3.355469 7.5 7.5 7.5h80.8125c4.140625 0 7.5-3.359375 7.5-7.5 0-4.144531-3.359375-7.5-7.5-7.5zm0 0"/><path d="m314.589844 286.886719h-80.8125c-4.140625 0-7.5 3.355469-7.5 7.5 0 4.140625 3.359375 7.5 7.5 7.5h80.8125c4.140625 0 7.5-3.359375 7.5-7.5 0-4.144531-3.359375-7.5-7.5-7.5zm0 0"/><path d="m314.589844 327.292969h-80.8125c-4.140625 0-7.5 3.355469-7.5 7.5s3.359375 7.5 7.5 7.5h80.8125c4.140625 0 7.5-3.355469 7.5-7.5s-3.359375-7.5-7.5-7.5zm0 0"/><path d="m314.589844 367.699219h-80.8125c-4.140625 0-7.5 3.355469-7.5 7.5s3.359375 7.5 7.5 7.5h80.8125c4.140625 0 7.5-3.355469 7.5-7.5s-3.359375-7.5-7.5-7.5zm0 0"/><path d="m314.589844 408.105469h-80.8125c-4.140625 0-7.5 3.355469-7.5 7.5 0 4.140625 3.359375 7.5 7.5 7.5h80.8125c4.140625 0 7.5-3.359375 7.5-7.5 0-4.144531-3.359375-7.5-7.5-7.5zm0 0"/></svg>